<mxfile host="65bd71144e" scale="5" border="0">
    <diagram id="DuCAm9275b7ddMfAd-bc" name="Page-1">
        <mxGraphModel dx="1801" dy="1753" grid="1" gridSize="10" guides="1" tooltips="1" connect="1" arrows="1" fold="1" page="1" pageScale="1" pageWidth="850" pageHeight="1100" math="1" shadow="0">
            <root>
                <mxCell id="0"/>
                <mxCell id="1" parent="0"/>
                <mxCell id="IipSyU_IOVU7ddliheSF-1" value="Generate Trajectory Samples" style="whiteSpace=wrap;html=1;fontFamily=Verdana;fontSize=14;align=left;spacingLeft=8;fontStyle=0" parent="1" vertex="1">
                    <mxGeometry x="40" y="116" width="260" height="30" as="geometry"/>
                </mxCell>
                <mxCell id="IipSyU_IOVU7ddliheSF-2" value="Update Trajectory Samples" style="whiteSpace=wrap;html=1;fontFamily=Verdana;fontSize=14;align=left;spacingLeft=8;fontStyle=0" parent="1" vertex="1">
                    <mxGeometry x="40" y="156" width="380" height="30" as="geometry"/>
                </mxCell>
                <mxCell id="IipSyU_IOVU7ddliheSF-4" value="Update Parameters" style="whiteSpace=wrap;html=1;fontFamily=Verdana;fontSize=14;align=left;spacingLeft=8;fontStyle=0" parent="1" vertex="1">
                    <mxGeometry x="40" y="36" width="310" height="30" as="geometry"/>
                </mxCell>
                <mxCell id="IipSyU_IOVU7ddliheSF-5" value="Process Trajectories, Sample Targets" style="whiteSpace=wrap;html=1;fontFamily=Verdana;fontSize=14;align=left;spacingLeft=8;fontStyle=0" parent="1" vertex="1">
                    <mxGeometry x="40" y="76" width="340" height="30" as="geometry"/>
                </mxCell>
                <mxCell id="IipSyU_IOVU7ddliheSF-6" value="Perform Evaluation" style="whiteSpace=wrap;html=1;fontFamily=Verdana;fontSize=14;align=left;spacingLeft=8;fontStyle=0" parent="1" vertex="1">
                    <mxGeometry x="40" y="196" width="160" height="30" as="geometry"/>
                </mxCell>
                <mxCell id="ntXJS-SVcqxulDdzBPt4-1" value="" style="endArrow=none;html=1;strokeWidth=10;fontFamily=Verdana;fontSize=14;align=left;fontColor=none;noLabel=1;labelBackgroundColor=none;strokeColor=#BF3D65;fontStyle=0" parent="1" edge="1">
                    <mxGeometry width="50" height="50" relative="1" as="geometry">
                        <mxPoint x="30" y="266" as="sourcePoint"/>
                        <mxPoint x="30" y="36" as="targetPoint"/>
                    </mxGeometry>
                </mxCell>
                <mxCell id="ntXJS-SVcqxulDdzBPt4-2" value="" style="endArrow=none;html=1;strokeWidth=6;fontFamily=Verdana;fontSize=14;fontColor=none;noLabel=1;labelBackgroundColor=none;strokeColor=#808080;fontStyle=0;dashed=1;" parent="1" edge="1">
                    <mxGeometry width="50" height="50" relative="1" as="geometry">
                        <mxPoint x="430" y="266" as="sourcePoint"/>
                        <mxPoint x="430" y="36" as="targetPoint"/>
                    </mxGeometry>
                </mxCell>
                <mxCell id="ntXJS-SVcqxulDdzBPt4-9" value="Parameter Server" style="text;html=1;strokeColor=none;fillColor=none;align=right;verticalAlign=middle;whiteSpace=wrap;rounded=0;fontFamily=Verdana;fontSize=14;fontStyle=0" parent="1" vertex="1">
                    <mxGeometry x="-110" y="36" width="130" height="30" as="geometry"/>
                </mxCell>
                <mxCell id="ntXJS-SVcqxulDdzBPt4-10" value="Replay Buffer" style="text;html=1;strokeColor=none;fillColor=none;align=right;verticalAlign=middle;whiteSpace=wrap;rounded=0;fontFamily=Verdana;fontSize=14;fontStyle=0" parent="1" vertex="1">
                    <mxGeometry x="-100" y="76" width="120" height="30" as="geometry"/>
                </mxCell>
                <mxCell id="ntXJS-SVcqxulDdzBPt4-11" value="Training Worker" style="text;html=1;strokeColor=none;fillColor=none;align=right;verticalAlign=middle;whiteSpace=wrap;rounded=0;fontFamily=Verdana;fontSize=14;fontStyle=0" parent="1" vertex="1">
                    <mxGeometry x="-100" y="116" width="120" height="30" as="geometry"/>
                </mxCell>
                <mxCell id="ntXJS-SVcqxulDdzBPt4-14" value="Testing Worker" style="text;html=1;strokeColor=none;fillColor=none;align=right;verticalAlign=middle;whiteSpace=wrap;rounded=0;fontFamily=Verdana;fontSize=14;fontStyle=0" parent="1" vertex="1">
                    <mxGeometry x="-110" y="196" width="130" height="30" as="geometry"/>
                </mxCell>
                <mxCell id="ntXJS-SVcqxulDdzBPt4-15" value="" style="endArrow=classic;startArrow=classic;html=1;rounded=1;sketch=0;fontFamily=Verdana;curved=0;fontSize=14;align=left;fontStyle=0" parent="1" edge="1">
                    <mxGeometry width="50" height="50" relative="1" as="geometry">
                        <mxPoint x="40" y="256" as="sourcePoint"/>
                        <mxPoint x="420" y="256" as="targetPoint"/>
                    </mxGeometry>
                </mxCell>
                <mxCell id="ntXJS-SVcqxulDdzBPt4-16" value="One Training Step" style="edgeLabel;html=1;align=center;verticalAlign=middle;resizable=0;points=[];fontFamily=Verdana;labelBackgroundColor=none;labelBorderColor=none;fontSize=20;fontStyle=0" parent="ntXJS-SVcqxulDdzBPt4-15" vertex="1" connectable="0">
                    <mxGeometry x="0.0895" y="-1" relative="1" as="geometry">
                        <mxPoint x="-17" y="19" as="offset"/>
                    </mxGeometry>
                </mxCell>
                <mxCell id="ntXJS-SVcqxulDdzBPt4-17" value="Generate Trajectory Samples" style="whiteSpace=wrap;html=1;fontFamily=Verdana;fontSize=14;align=left;spacingLeft=8;fontStyle=0" parent="1" vertex="1">
                    <mxGeometry x="320" y="116" width="260" height="30" as="geometry"/>
                </mxCell>
                <mxCell id="ntXJS-SVcqxulDdzBPt4-18" value="Update&amp;nbsp;Trajectory Samples" style="whiteSpace=wrap;html=1;fontFamily=Verdana;fontSize=14;align=left;spacingLeft=8;fontStyle=0" parent="1" vertex="1">
                    <mxGeometry x="440" y="156" width="290" height="30" as="geometry"/>
                </mxCell>
                <mxCell id="ntXJS-SVcqxulDdzBPt4-19" value="Update Parameters" style="whiteSpace=wrap;html=1;fontFamily=Verdana;fontSize=14;align=left;spacingLeft=8;fontStyle=0" parent="1" vertex="1">
                    <mxGeometry x="370" y="36" width="380" height="30" as="geometry"/>
                </mxCell>
                <mxCell id="ntXJS-SVcqxulDdzBPt4-20" value="Process Trajectories, Sample Targets" style="whiteSpace=wrap;html=1;fontFamily=Verdana;fontSize=14;align=left;spacingLeft=8;fontStyle=0" parent="1" vertex="1">
                    <mxGeometry x="400" y="76" width="310" height="30" as="geometry"/>
                </mxCell>
                <mxCell id="ntXJS-SVcqxulDdzBPt4-27" value="" style="endArrow=classic;startArrow=classic;html=1;rounded=1;sketch=0;fontFamily=Verdana;curved=0;fontSize=14;align=left;fontStyle=0" parent="1" edge="1">
                    <mxGeometry width="50" height="50" relative="1" as="geometry">
                        <mxPoint x="440" y="256" as="sourcePoint"/>
                        <mxPoint x="750" y="256" as="targetPoint"/>
                    </mxGeometry>
                </mxCell>
                <mxCell id="ntXJS-SVcqxulDdzBPt4-28" value="One Training Step" style="edgeLabel;html=1;align=center;verticalAlign=middle;resizable=0;points=[];fontFamily=Verdana;labelBackgroundColor=none;labelBorderColor=none;fontSize=20;fontStyle=0" parent="ntXJS-SVcqxulDdzBPt4-27" vertex="1" connectable="0">
                    <mxGeometry x="0.0895" y="-1" relative="1" as="geometry">
                        <mxPoint x="-17" y="19" as="offset"/>
                    </mxGeometry>
                </mxCell>
                <mxCell id="0zTCEKOlQbjuJWeUA4mi-3" value="Reanalyze Worker" style="text;html=1;strokeColor=none;fillColor=none;align=right;verticalAlign=middle;whiteSpace=wrap;rounded=0;fontFamily=Verdana;fontSize=14;fontStyle=0" parent="1" vertex="1">
                    <mxGeometry x="-120" y="156" width="140" height="30" as="geometry"/>
                </mxCell>
                <mxCell id="0zTCEKOlQbjuJWeUA4mi-19" value="" style="endArrow=classic;startArrow=none;html=1;rounded=1;sketch=0;fontFamily=Verdana;curved=0;fontSize=14;align=left;startFill=0;strokeWidth=3;fontStyle=0" parent="1" edge="1">
                    <mxGeometry width="50" height="50" relative="1" as="geometry">
                        <mxPoint x="30" y="345" as="sourcePoint"/>
                        <mxPoint x="920" y="345" as="targetPoint"/>
                    </mxGeometry>
                </mxCell>
                <mxCell id="0zTCEKOlQbjuJWeUA4mi-20" value="Time" style="edgeLabel;html=1;align=center;verticalAlign=middle;resizable=0;points=[];fontFamily=Verdana;labelBackgroundColor=none;labelBorderColor=none;fontSize=30;fontStyle=0" parent="0zTCEKOlQbjuJWeUA4mi-19" vertex="1" connectable="0">
                    <mxGeometry x="0.0895" y="-1" relative="1" as="geometry">
                        <mxPoint x="-29" y="19" as="offset"/>
                    </mxGeometry>
                </mxCell>
                <mxCell id="0zTCEKOlQbjuJWeUA4mi-30" value="sync" style="text;html=1;strokeColor=none;fillColor=none;align=center;verticalAlign=middle;whiteSpace=wrap;rounded=0;fontFamily=Verdana;fontSize=14;fontStyle=0" parent="1" vertex="1">
                    <mxGeometry x="10" y="20" width="40" height="10" as="geometry"/>
                </mxCell>
                <mxCell id="0zTCEKOlQbjuJWeUA4mi-32" value="sync" style="text;html=1;strokeColor=none;fillColor=none;align=center;verticalAlign=middle;whiteSpace=wrap;rounded=0;fontFamily=Verdana;fontSize=14;fontStyle=0" parent="1" vertex="1">
                    <mxGeometry x="741" y="20" width="40" height="11" as="geometry"/>
                </mxCell>
                <mxCell id="3" value="" style="group" parent="1" vertex="1" connectable="0">
                    <mxGeometry x="795" y="36" width="345" height="190" as="geometry"/>
                </mxCell>
                <mxCell id="0zTCEKOlQbjuJWeUA4mi-22" value="Generate Trajectory Samples" style="whiteSpace=wrap;html=1;fontFamily=Verdana;fontSize=14;align=left;spacingLeft=8;shadow=0;rounded=0;gradientColor=#999999;labelBackgroundColor=none;textOpacity=10;opacity=20;strokeColor=default;gradientDirection=west;strokeWidth=0;fontStyle=0" parent="3" vertex="1">
                    <mxGeometry y="80" width="260" height="30" as="geometry"/>
                </mxCell>
                <mxCell id="0zTCEKOlQbjuJWeUA4mi-23" value="Update&amp;nbsp;Trajectory Samples" style="whiteSpace=wrap;html=1;fontFamily=Verdana;fontSize=14;align=left;spacingLeft=8;shadow=0;rounded=0;gradientColor=#999999;labelBackgroundColor=none;textOpacity=10;opacity=20;strokeColor=default;gradientDirection=west;strokeWidth=0;fontStyle=0" parent="3" vertex="1">
                    <mxGeometry y="120" width="290" height="30" as="geometry"/>
                </mxCell>
                <mxCell id="0zTCEKOlQbjuJWeUA4mi-24" value="Update Parameters" style="whiteSpace=wrap;html=1;fontFamily=Verdana;fontSize=14;align=left;spacingLeft=8;shadow=0;rounded=0;gradientColor=#999999;labelBackgroundColor=none;textOpacity=10;opacity=20;strokeColor=default;gradientDirection=west;strokeWidth=0;fontStyle=0" parent="3" vertex="1">
                    <mxGeometry width="260" height="30" as="geometry"/>
                </mxCell>
                <mxCell id="0zTCEKOlQbjuJWeUA4mi-25" value="Process Trajectories, Sample Targets" style="whiteSpace=wrap;html=1;fontFamily=Verdana;fontSize=14;align=left;spacingLeft=8;shadow=0;rounded=0;gradientColor=#999999;labelBackgroundColor=none;textOpacity=10;opacity=20;strokeColor=default;gradientDirection=west;strokeWidth=0;fontStyle=0" parent="3" vertex="1">
                    <mxGeometry y="40" width="320" height="30" as="geometry"/>
                </mxCell>
                <mxCell id="0zTCEKOlQbjuJWeUA4mi-26" value="Perform Evaluation" style="whiteSpace=wrap;html=1;fontFamily=Verdana;fontSize=14;align=left;spacingLeft=8;shadow=0;rounded=0;gradientColor=#999999;labelBackgroundColor=none;textOpacity=10;opacity=20;strokeColor=default;gradientDirection=west;strokeWidth=0;fontStyle=0" parent="3" vertex="1">
                    <mxGeometry y="160" width="180" height="30" as="geometry"/>
                </mxCell>
                <mxCell id="0zTCEKOlQbjuJWeUA4mi-21" value="$$\dots$$" style="text;html=1;align=center;verticalAlign=middle;resizable=0;points=[];autosize=1;strokeColor=none;fillColor=none;fontSize=80;fontFamily=Verdana;fontStyle=0" parent="3" vertex="1">
                    <mxGeometry x="-120" y="22" width="430" height="100" as="geometry"/>
                </mxCell>
                <mxCell id="ntXJS-SVcqxulDdzBPt4-25" value="" style="endArrow=none;html=1;strokeWidth=10;fontFamily=Verdana;fontSize=14;align=left;fontColor=none;noLabel=1;labelBackgroundColor=none;strokeColor=#BF3D65;fontStyle=0" parent="1" edge="1">
                    <mxGeometry width="50" height="50" relative="1" as="geometry">
                        <mxPoint x="760" y="266" as="sourcePoint"/>
                        <mxPoint x="760" y="36" as="targetPoint"/>
                    </mxGeometry>
                </mxCell>
            </root>
        </mxGraphModel>
    </diagram>
</mxfile>